<svg width="512" height="512" viewBox="0 0 512 512" fill="none" xmlns="http://www.w3.org/2000/svg">
    <g id="loading-animation">
        <rect id="rails" y="395" width="512" height="7" fill="black"/>
        <g id="train">
            <path id="trainBody" d="M0 251.062C0 241.674 7.61116 234.062 17 234.062H300.866C304.888 234.062 308.78 235.488 311.85 238.087L453.147 357.687C465.234 367.917 457.999 387.662 442.164 387.662H307.095H17C7.61114 387.662 0 380.051 0 370.662L0 251.062Z" fill="black"/>
            <path id="windowFront" d="M211.591 261.623C211.591 258.861 213.829 256.623 216.591 256.623H297.015C298.19 256.623 299.327 257.037 300.227 257.791L340.645 291.677C344.223 294.677 342.102 300.509 337.433 300.509H216.591C213.829 300.509 211.591 298.27 211.591 295.509V261.623Z" fill="white"/>
            <path id="windowBack" d="M73.7002 261.623C73.7002 258.861 75.9388 256.623 78.7002 256.623H159.433C162.194 256.623 164.433 258.862 164.433 261.623V295.509C164.433 298.27 162.194 300.509 159.433 300.509H78.7002C75.9388 300.509 73.7002 298.27 73.7002 295.509V261.623Z" fill="white"/>
        </g>
    </g>
</svg>
