<svg width="128" height="128" viewBox="0 0 128 128" fill="none" xmlns="http://www.w3.org/2000/svg">
<g clip-path="url(#clip0)">
<circle cx="64" cy="64" r="64" fill="#6B6858"/>
<path d="M65 18.5C65 18.5 61 22 59 23C57 24 43.5 23 43.5 23L33 17C33 17 36 25 36.5 28.5C37 32 37 36.5 36.5 39.5C36 42.5 32 45 30 51.5C28 58 27.5 64 27.5 68.5C27.5 73 29 80.5 30 84.5C31 88.5 35.5 93.5 39.5 96.5C43.5 99.5 52.5 102.5 52.5 102.5V108L43.5 114H62V102.5H67.5V114H87L76 108V102.5C76 102.5 87.5 99 92 96C96.5 93 97.5 87.5 98.5 84.5C99.5 81.5 100.5 68.5 100.5 68.5C100.5 68.5 101.5 57.5 98.5 51.5C95.5 45.5 93 42 92 39.5C91 37 91.4791 32.1464 92 28.5C92.5209 24.8536 94 17 94 17L82 23C82 23 73.7819 23.9128 71.5 23C69.2181 22.0872 65 18.5 65 18.5Z" fill="#F4F0D7"/>
<circle cx="47.5" cy="39.5" r="5.5" fill="#6B6858"/>
<circle cx="81.5" cy="39.5" r="5.5" fill="#6B6858"/>
<path d="M65 50L58.9378 39.5H71.0622L65 50Z" fill="#6B6858"/>
<path d="M42 64L47.5 72.5L53 64" stroke="#6B6858" stroke-width="4"/>
<path d="M59 64L64.5 72.5L70 64" stroke="#6B6858" stroke-width="4"/>
<path d="M76 64L81.5 72.5L87 64" stroke="#6B6858" stroke-width="4"/>
<path d="M68 75L73.5 83.5L79 75" stroke="#6B6858" stroke-width="4"/>
<path d="M50 75L55.5 83.5L61 75" stroke="#6B6858" stroke-width="4"/>
</g>
<defs>
<clipPath id="clip0">
<rect width="128" height="128" fill="white"/>
</clipPath>
</defs>
</svg>
